<svg width="30" height="30" viewBox="0 0 30 30" fill="none" xmlns="http://www.w3.org/2000/svg">
<rect width="30" height="30" rx="5" fill="white"/>
<path fill-rule="evenodd" clip-rule="evenodd" d="M14.145 13.07L9.91001 6.00002C9.73233 5.69232 9.73127 5.31345 9.90722 5.00476C10.0832 4.69607 10.4097 4.50393 10.765 4.50002H19.235C19.5903 4.50393 19.9168 4.69607 20.0928 5.00476C20.2688 5.31345 20.2677 5.69232 20.09 6.00002L15.855 13.07C15.6737 13.3689 15.3496 13.5514 15 13.5514C14.6505 13.5514 14.3263 13.3689 14.145 13.07Z" fill="#0984E3" stroke="#0984E3" stroke-width="2" stroke-linecap="round" stroke-linejoin="round"/>
<path fill-rule="evenodd" clip-rule="evenodd" d="M14.145 16.93L9.91001 24C9.73233 24.3077 9.73127 24.6866 9.90722 24.9952C10.0832 25.3039 10.4097 25.4961 10.765 25.5H19.235C19.5903 25.4961 19.9168 25.3039 20.0928 24.9952C20.2688 24.6866 20.2677 24.3077 20.09 24L15.855 16.93C15.6737 16.6311 15.3496 16.4486 15 16.4486C14.6505 16.4486 14.3263 16.6311 14.145 16.93Z" fill="#74B9FF" stroke="#74B9FF" stroke-width="2" stroke-linecap="round" stroke-linejoin="round"/>
</svg>
